<svg width="383" height="383" viewBox="0 0 383 383" fill="none" xmlns="http://www.w3.org/2000/svg">
<path d="M200.769 334.158C198.128 331.405 196.726 327.693 196.886 323.881C197.479 309.776 196.73 300.906 194.5 294.61C192.564 289.14 189.22 284.796 181.998 280.544C158.309 266.593 130.683 284.542 134.007 310.726C134.295 312.995 134.221 315.014 134.086 316.568C133.975 317.835 133.788 319.114 133.671 319.916C133.654 320.034 133.638 320.142 133.624 320.238C133.476 321.27 133.442 321.736 133.431 321.881C134.114 325.9 133.011 330.022 130.402 333.166C127.742 336.371 123.794 338.225 119.629 338.225L74.375 338.225C73.2591 338.225 71.9544 338.273 70.2229 338.338L69.9484 338.348C68.2087 338.412 66.1091 338.487 64.0138 338.477C61.9453 338.466 59.5083 338.374 57.0717 338.015C54.794 337.679 51.4872 336.972 48.2912 335.125C45.3594 333.432 43.1406 330.733 42.0458 327.529C40.2555 322.29 40.1809 316.347 40.2302 312.435C40.2559 310.392 40.3381 308.331 40.4094 306.542L40.4242 306.169C40.5026 304.196 40.5604 302.607 40.5604 301.242L40.5604 271.413C40.5604 270.69 40.5432 269.79 40.5236 268.761C40.4397 264.357 40.3111 257.609 41.2941 252.424C41.6785 250.397 42.5063 248.48 43.7183 246.81C44.7657 245.366 46.8701 242.766 50.5431 241.036C53.9473 239.433 57.1899 239.295 59.1633 239.323C60.895 239.348 62.6071 239.693 64.2126 240.343C66.2643 241.173 68.0149 241.923 69.5942 242.6C74.3022 244.619 77.4889 245.985 82.5957 246.855C102.295 250.207 121.003 230.273 116.523 211.308C116.508 211.242 116.492 211.175 116.478 211.108C115.595 207.111 114.138 203.265 112.153 199.688C108.221 193.162 101.107 188.833 86.7581 186.449L200.769 334.158ZM200.769 334.158C203.409 336.912 207.059 338.469 210.874 338.469M200.769 334.158L210.874 338.469M210.874 338.469L210.875 338.469L255.152 338.469C255.811 338.469 256.828 338.524 258.527 338.637C258.694 338.648 258.867 338.66 259.045 338.672C260.482 338.769 262.252 338.888 264 338.951C265.946 339.022 268.301 339.043 270.649 338.823C272.708 338.63 276.129 338.147 279.469 336.4C285.272 333.397 287.512 328.121 288.385 325.297C289.33 322.24 289.577 319.171 289.66 316.967C289.748 314.632 289.673 312.299 289.601 310.475C289.582 309.976 289.563 309.526 289.546 309.115C289.492 307.824 289.455 306.924 289.455 306.132L289.455 306.103C289.455 306.081 289.455 306.058 289.455 306.035L289.21 270.433C289.21 270.417 289.21 270.401 289.21 270.385C289.209 269.362 289.192 268.187 289.176 267.157C289.169 266.703 289.163 266.277 289.159 265.905C291.196 266.635 294.052 267.651 296.122 268.247C299.905 269.337 305.076 270.417 310.836 269.642L310.837 269.641C324.776 267.764 339.24 263.208 348.928 251.168C353.627 245.49 357.206 238.969 359.472 231.954C359.497 231.878 359.521 231.802 359.544 231.726M210.874 338.469L359.544 231.726M40.5604 160.166L40.5605 160.099L40.8054 111.199C40.8254 107.186 42.5673 103.374 45.5886 100.731L47.5452 99.0201C50.059 96.8216 53.2758 95.5941 56.6152 95.5591C75.9263 95.357 95.2402 95.1547 114.557 94.9522C114.485 94.7545 114.415 94.5576 114.346 94.3638C113.958 93.2647 113.505 91.9038 113.144 90.4554C113.111 90.325 113.081 90.1941 113.052 90.0627C111.577 83.3337 111.462 76.3773 112.716 69.6034C112.744 69.4534 112.774 69.3038 112.807 69.1547C117.318 48.564 131.448 34.6504 150.302 28.9263L150.302 28.9261C160.467 25.8402 171.905 26.8575 180.991 29.2069C185.702 30.4249 190.307 32.1323 194.375 34.2614C198.244 36.2864 202.551 39.1721 205.716 43.1806M40.5604 160.166L289.21 161.881C289.211 159.696 289.327 156.271 289.477 151.841C289.493 151.373 289.51 150.893 289.526 150.402C289.694 145.436 289.879 139.616 289.929 133.911C289.979 128.264 289.901 122.403 289.491 117.407C289.287 114.921 288.978 112.341 288.473 109.959C288.053 107.978 287.181 104.473 284.998 101.33C282.991 98.4387 279.968 96.4097 276.532 95.647C271.842 94.606 266.808 94.5228 262.89 94.5695C260.374 94.5994 258.655 94.6603 257.105 94.7151C255.453 94.7736 253.994 94.8253 251.971 94.8253L251.899 94.8255C239.803 94.8875 227.707 94.9492 215.613 95.0105C216.209 93.2722 216.852 91.3074 217.299 89.6292C218.402 85.4937 219.309 80.1203 218.336 74.0806C216.434 62.2713 212.785 52.1304 205.716 43.1806M40.5604 160.166C40.5602 160.858 40.5019 161.909 40.3835 163.641C40.3711 163.821 40.3582 164.008 40.3449 164.201C40.2441 165.662 40.1202 167.456 40.0533 169.226C39.9781 171.215 39.9535 173.613 40.177 176.007C40.3784 178.165 40.8812 181.624 42.6429 184.993M40.5604 160.166L67.9568 191.482M205.716 43.1806L194.73 51.8576L205.716 43.1805C205.716 43.1805 205.716 43.1805 205.716 43.1806ZM359.544 231.726C365.101 213.47 360.764 197.297 351.249 185.361M359.544 231.726L351.249 185.361M67.9568 191.482C64.8358 193.214 60.9589 194.231 56.9923 194.007C53.0225 193.783 46.2868 191.961 42.6429 184.993M67.9568 191.482C74.2708 187.978 80.3348 185.382 86.7571 186.448L67.9568 191.482ZM42.6429 184.993L55.049 178.505M42.6429 184.993C42.6431 184.994 42.6433 184.994 42.6435 184.994L55.049 178.505M55.049 178.505C53.5854 175.707 53.9783 170.005 54.3115 165.17C54.4402 163.301 54.5601 161.562 54.5604 160.169L61.1645 179.24C59.2407 180.309 56.1031 180.521 55.049 178.505ZM289.13 166.795C289.125 167.067 289.12 167.33 289.117 167.585C289.596 167.447 290.143 167.284 290.743 167.106C293.225 166.371 296.599 165.371 299.68 164.718C304.085 163.786 309.74 163.083 315.827 164.28L289.13 166.795ZM289.13 166.795C289.137 166.465 289.145 166.109 289.153 165.735M289.13 166.795L289.153 165.735M289.153 165.735C289.18 164.535 289.21 163.154 289.21 161.883L289.153 165.735ZM351.249 185.361C342.135 173.927 328.7 166.812 315.829 164.281L351.249 185.361ZM116.896 101.998C116.895 101.997 116.892 101.975 116.89 101.932C116.895 101.977 116.896 101.999 116.896 101.998ZM289.31 172.513C289.319 172.544 289.322 172.56 289.322 172.561C289.322 172.561 289.317 172.545 289.31 172.513Z" stroke="#922EB0" stroke-width="28" stroke-linejoin="round"/>
</svg>
