<svg width="181" height="248" viewBox="0 0 181 248" fill="none" xmlns="http://www.w3.org/2000/svg">
<path d="M107.842 200.461C109.18 202.048 112.314 206.381 113.267 208.685C114.219 210.988 114.11 210.542 114.613 212.48C115.116 214.417 113.022 214.876 110.906 214.414C108.79 213.953 108.422 213.248 104.843 214.56C103.08 215.207 100.891 219.017 102.736 223.292C105.24 229.094 109.98 231.29 112.645 230.224C115.31 229.158 115.943 223.576 117.925 223.821C119.906 224.067 122.104 230.512 122.104 230.512C122.104 230.512 122.794 232.691 124.119 238.173C125.443 243.656 127.731 242.198 129.853 241.419L133.775 239.981L139.279 237.962C143.668 236.351 141.941 235.924 137.46 231.333C132.979 226.743 138.87 223.653 141.375 222.735C148.894 219.976 150.65 223.723 150.887 224.595C151.314 226.163 151.196 227.532 150.747 229.775C150.45 231.26 151.535 233.435 152.985 232.933C157.263 231.452 163.451 229.182 164.962 228.628C166.684 227.996 168.42 226.784 166.412 223.586C164.102 219.909 161.088 215.016 159.63 212.412C158.459 210.318 158.563 208.78 161.115 208.418C163.398 208.686 166.79 209.432 168.156 209.284C169.868 209.098 173.115 205.42 170.582 199.551C168.885 195.619 163.078 192.4 160.08 193.853C158.749 194.342 157.073 197.68 156.098 199.205C155.122 200.73 153.763 198.721 153.205 197.525C151.921 194.548 151.026 189.482 149.969 185.006C149.111 181.369 146.279 181.187 145.056 181.636L132.788 186.136C130.513 186.971 132.008 188.383 133.128 189.239C134.084 189.846 137.505 191.553 138.12 195.013C138.731 198.458 128.594 203.548 123.622 200.332C121.902 199.219 122.697 196.161 122.947 192.974C123.147 190.425 121.293 190.398 120.341 190.703L107.534 195.401C103.828 196.761 106.049 198.334 107.842 200.461Z" fill="#9C27B0" fill-opacity="0.301961"/>
<path d="M10.808 174.98C12.2201 175.811 15.6949 178.21 17.0189 179.663C18.343 181.115 18.1416 180.815 19.0368 182.111C19.9319 183.407 18.5213 184.263 16.8444 184.45C15.1676 184.636 14.7062 184.211 12.4392 186.061C11.3225 186.973 10.7522 190.309 13.2663 192.986C16.6783 196.618 20.75 197.052 22.4144 195.609C24.0787 194.166 23.0263 189.916 24.5457 189.605C26.0651 189.294 29.4274 193.473 29.4274 193.473C29.4274 193.473 30.5252 194.899 32.9859 198.59C35.4465 202.282 36.7275 200.645 38.0722 199.547L40.5563 197.52L44.0432 194.673C46.8237 192.404 45.4417 192.518 40.9092 190.265C36.3767 188.012 39.8567 184.285 41.4434 182.989C46.2066 179.101 48.5121 181.413 48.9227 181.993C49.6614 183.036 49.9474 184.07 50.2275 185.825C50.413 186.988 51.7995 188.313 52.7264 187.585C55.4605 185.438 59.3805 182.238 60.3376 181.457C61.4283 180.567 62.3722 179.247 60.0308 177.401C57.3387 175.278 53.7995 172.439 52.0235 170.891C50.5955 169.647 50.2543 168.493 52.0274 167.595C53.7737 167.225 56.4634 166.93 57.4248 166.482C58.6292 165.921 60.0105 162.419 56.559 158.745C54.2469 156.283 49.115 155.364 47.3119 157.173C46.4686 157.862 46.1466 160.725 45.8459 162.085C45.5451 163.445 44.0027 162.309 43.269 161.571C41.5182 159.707 39.4861 156.215 37.4955 153.195C35.878 150.742 33.7525 151.311 32.9776 151.944L25.2061 158.287C23.7644 159.464 25.2441 160.128 26.2978 160.478C27.164 160.686 30.1358 161.088 31.5261 163.472C32.9106 165.847 26.8606 172.094 22.3416 170.969C20.7785 170.58 20.5306 168.141 19.8481 165.743C19.3021 163.824 17.9356 164.264 17.3206 164.724L9.20729 171.347C6.85989 173.263 8.91528 173.865 10.808 174.98Z" fill="#9C27B0" fill-opacity="0.301961"/>
<path d="M128.09 118.792C127.8 119.542 126.911 121.42 126.303 122.185C125.696 122.95 125.828 122.826 125.261 123.373C124.694 123.919 124.142 123.326 123.901 122.544C123.66 121.762 123.831 121.503 122.708 120.594C122.155 120.146 120.441 120.182 119.328 121.628C117.818 123.589 117.962 125.57 118.828 126.23C119.695 126.89 121.721 125.995 122.01 126.691C122.3 127.386 120.513 129.375 120.513 129.375C120.513 129.375 119.899 130.03 118.275 131.544C116.652 133.057 117.581 133.517 118.247 134.056L119.478 135.053L121.205 136.451C122.583 137.567 122.403 136.919 123.127 134.55C123.85 132.182 126.016 133.496 126.802 134.132C129.161 136.043 128.212 137.355 127.959 137.605C127.504 138.053 127.014 138.285 126.164 138.581C125.6 138.777 125.062 139.56 125.507 139.934C126.819 141.039 128.761 142.611 129.235 142.995C129.775 143.433 130.516 143.761 131.23 142.474C132.051 140.995 133.154 139.046 133.769 138.057C134.264 137.261 134.809 136.992 135.413 137.754C135.752 138.552 136.137 139.806 136.445 140.223C136.831 140.745 138.699 141.08 140.227 139.095C141.25 137.766 141.255 135.235 140.193 134.543C139.776 134.205 138.319 134.316 137.615 134.299C136.91 134.281 137.34 133.441 137.643 133.023C138.418 132.016 139.98 130.725 141.31 129.497C142.391 128.5 141.919 127.539 141.535 127.229L137.685 124.111C136.971 123.533 136.771 124.299 136.689 124.834C136.662 125.266 136.724 126.719 135.658 127.602C134.596 128.482 130.947 126.176 131.108 123.918C131.164 123.137 132.359 122.794 133.494 122.247C134.403 121.809 134.063 121.199 133.779 120.948L129.76 117.693C128.597 116.752 128.479 117.787 128.09 118.792Z" fill="#9C27B0" fill-opacity="0.3"/>
<path d="M71.215 11.5009C70.519 13.3005 68.3846 17.807 66.927 19.6436C65.4694 21.4802 65.7859 21.1833 64.4248 22.4946C63.0636 23.8059 61.7403 22.3823 61.1615 20.5057C60.5827 18.6291 60.9942 18.007 58.2991 15.8246C56.9714 14.7495 52.8575 14.8372 50.1873 18.3064C46.5635 23.0147 46.9073 27.7682 48.9871 29.3518C51.0669 30.9354 55.9296 28.789 56.6243 30.4579C57.3191 32.1267 53.0298 36.8995 53.0298 36.8995C53.0298 36.8995 51.556 38.4714 47.6601 42.1046C43.7642 45.7378 45.9946 46.84 47.5932 48.1345L50.5465 50.526L54.692 53.883C57.9976 56.5598 57.5673 55.0046 59.3032 49.3206C61.0391 43.6366 66.2373 46.7902 68.1238 48.3178C73.7866 52.9034 71.509 56.0532 70.9018 56.6515C69.8095 57.7279 68.6336 58.2841 66.5919 58.994C65.24 59.464 63.9476 61.3439 65.0152 62.2425C68.1647 64.8935 72.825 68.6674 73.963 69.5889C75.2596 70.6388 77.0386 71.4258 78.752 68.3383C80.7221 64.7881 83.3695 60.1104 84.8454 57.7356C86.0321 55.8263 87.3401 55.1802 88.7913 57.009C89.6042 58.9243 90.5273 61.9354 91.2669 62.9356C92.1936 64.1889 96.6774 64.9919 100.343 60.2292C102.799 57.0387 102.811 50.9649 100.264 49.3039C99.261 48.4921 95.7657 48.759 94.0742 48.7166C92.3827 48.6743 93.4155 46.6581 94.1434 45.6552C96.003 43.2391 99.7515 40.1403 102.943 37.1938C105.536 34.7994 104.405 32.4946 103.484 31.7486L94.2442 24.2667C92.5302 22.8787 92.0493 24.7184 91.8536 26.0013C91.7886 27.0381 91.937 30.5265 89.3786 32.6456C86.8308 34.7557 78.0717 29.2214 78.4594 23.8033C78.5935 21.9291 81.4601 21.1046 84.1857 19.792C86.3662 18.742 85.55 17.2766 84.8694 16.6751L75.2237 8.86415C72.4329 6.60423 72.148 9.08872 71.215 11.5009Z" fill="#9C27B0" fill-opacity="0.3"/>
</svg>
