<svg width="150" height="291" viewBox="0 0 150 291" fill="none" xmlns="http://www.w3.org/2000/svg">
<path d="M9.36958 229.831C10.1575 230.809 12.0031 233.479 12.564 234.898C13.1249 236.317 13.0605 236.042 13.3567 237.236C13.6529 238.43 12.4198 238.713 11.1736 238.428C9.92742 238.144 9.71069 237.709 7.60335 238.518C6.56526 238.917 5.27588 241.264 6.36244 243.899C7.83707 247.473 10.6284 248.827 12.1979 248.17C13.7674 247.513 14.1401 244.073 15.3068 244.225C16.4736 244.376 17.7681 248.347 17.7681 248.347C17.7681 248.347 18.1745 249.69 18.9546 253.068C19.7347 256.446 21.0818 255.548 22.3318 255.068L24.641 254.182L27.8824 252.937C30.467 251.945 29.4503 251.682 26.8113 248.853C24.1722 246.025 27.6416 244.121 29.1166 243.555C33.5444 241.855 34.5786 244.164 34.7182 244.701C34.9695 245.667 34.9004 246.511 34.636 247.893C34.461 248.808 35.1001 250.148 35.9541 249.839C38.4733 248.926 42.117 247.528 43.007 247.186L43.0071 247.186C44.0209 246.797 45.0435 246.05 43.8607 244.08C42.5007 241.814 40.7255 238.799 39.8672 237.194C39.1771 235.904 39.2386 234.956 40.7418 234.734C42.086 234.899 44.0836 235.358 44.8882 235.267C45.8962 235.152 47.8081 232.886 46.3164 229.27C45.3171 226.847 41.8976 224.864 40.1321 225.759C39.3482 226.06 38.3611 228.117 37.7868 229.057C37.2124 229.997 36.412 228.758 36.0836 228.022C35.3269 226.187 34.8001 223.066 34.1779 220.308C33.6722 218.067 32.0047 217.954 31.2844 218.231L24.0601 221.004C22.7199 221.519 23.6004 222.388 24.2599 222.916C24.8232 223.29 26.8378 224.342 27.1996 226.474C27.56 228.597 21.5898 231.733 18.6619 229.751C17.6491 229.065 18.1172 227.181 18.2644 225.218C18.3821 223.647 17.2904 223.63 16.7299 223.818L9.18786 226.713C7.00575 227.551 8.3135 228.52 9.36958 229.831Z" fill="#00C853" fill-opacity="0.301961"/>
<path d="M122.269 103.14C122.073 104.053 121.393 106.37 120.835 107.359C120.277 108.348 120.406 108.182 119.854 108.912C119.303 109.642 118.562 109.062 118.143 108.208C117.724 107.354 117.874 107.026 116.42 106.186C115.703 105.772 113.742 106.126 112.728 107.987C111.352 110.514 111.876 112.761 112.991 113.361C114.105 113.961 116.268 112.566 116.727 113.311C117.186 114.057 115.496 116.664 115.496 116.664C115.496 116.664 114.91 117.528 113.322 119.56C111.734 121.593 112.884 121.951 113.747 122.449L115.341 123.369L117.577 124.661C119.361 125.691 119.037 124.979 119.437 122.13C119.837 119.28 122.562 120.394 123.58 120.982C126.635 122.746 125.785 124.425 125.539 124.757C125.099 125.355 124.578 125.71 123.656 126.204C123.045 126.531 122.569 127.528 123.148 127.877C124.855 128.906 127.369 130.358 127.983 130.712C128.683 131.116 129.594 131.358 130.179 129.752C130.852 127.904 131.764 125.467 132.29 124.219C132.713 123.216 133.29 122.808 134.122 123.573C134.656 124.427 135.326 125.797 135.755 126.22C136.293 126.749 138.498 126.793 139.891 124.238C140.824 122.526 140.37 119.62 139.025 119.019C138.484 118.707 136.833 119.099 136.021 119.207C135.209 119.315 135.55 118.272 135.822 117.737C136.528 116.441 138.086 114.675 139.389 113.024C140.448 111.683 139.733 110.666 139.235 110.379L134.25 107.501C133.325 106.967 133.234 107.883 133.238 108.511C133.285 109.012 133.621 110.669 132.558 111.876C131.499 113.079 126.891 111.095 126.666 108.475C126.588 107.568 127.896 106.957 129.101 106.123C130.064 105.455 129.562 104.816 129.191 104.58L123.987 101.575C122.481 100.706 122.533 101.916 122.269 103.14Z" fill="#007BFF" fill-opacity="0.301961"/>
<path d="M131.411 237.977C130.914 238.768 129.483 240.713 128.62 241.451C127.758 242.19 127.936 242.078 127.168 242.575C126.399 243.073 125.902 242.274 125.8 241.328C125.698 240.383 125.952 240.125 124.872 238.839C124.34 238.205 122.377 237.867 120.787 239.269C118.63 241.172 118.354 243.463 119.196 244.408C120.038 245.353 122.548 244.782 122.724 245.64C122.9 246.497 120.42 248.369 120.42 248.369C120.42 248.369 119.575 248.98 117.387 250.347C115.2 251.714 116.158 252.444 116.798 253.207L117.981 254.617L119.641 256.596C120.965 258.173 120.904 257.394 122.255 254.853C123.605 252.312 125.784 254.291 126.54 255.191C128.808 257.894 127.434 259.181 127.09 259.409C126.472 259.82 125.861 259.976 124.825 260.124C124.139 260.223 123.351 260.997 123.776 261.523C125.028 263.074 126.894 265.298 127.35 265.841C127.869 266.46 128.642 266.999 129.742 265.689C131.006 264.184 132.697 262.205 133.618 261.213C134.358 260.415 135.04 260.229 135.561 261.232C135.77 262.217 135.93 263.734 136.19 264.278C136.514 264.959 138.571 265.755 140.754 263.83C142.216 262.54 142.783 259.654 141.725 258.629C141.324 258.151 139.638 257.955 138.838 257.779C138.038 257.602 138.715 256.739 139.153 256.33C140.261 255.353 142.329 254.227 144.118 253.121C145.572 252.222 145.247 251.022 144.878 250.583L141.178 246.173C140.491 245.355 140.092 246.185 139.881 246.776C139.754 247.263 139.503 248.935 138.091 249.706C136.685 250.473 133.033 247.034 133.718 244.494C133.954 243.616 135.393 243.489 136.81 243.117C137.943 242.819 137.691 242.047 137.423 241.698L133.56 237.094C132.442 235.762 132.077 236.917 131.411 237.977Z" fill="#FF9500" fill-opacity="0.301961"/>
<path d="M8.10864 119.447C8.41276 119.918 9.10749 121.189 9.29026 121.845C9.47303 122.501 9.45729 122.376 9.53307 122.92C9.60884 123.464 9.04826 123.532 8.50833 123.347C7.96841 123.163 7.89247 122.96 6.91925 123.221C6.43983 123.349 5.75793 124.331 6.11737 125.551C6.60518 127.207 7.78115 127.938 8.50852 127.719C9.2359 127.501 9.56181 125.992 10.0727 126.113C10.5836 126.235 10.9729 128.058 10.9729 128.058C10.9729 128.058 11.0907 128.673 11.2794 130.209C11.468 131.745 12.108 131.409 12.6852 131.255L13.7517 130.969L15.2486 130.568C16.4423 130.248 16.0033 130.083 14.9637 128.705C13.9242 127.326 15.5531 126.643 16.2343 126.46C18.2791 125.912 18.6305 126.986 18.6675 127.231C18.7339 127.671 18.6639 128.042 18.482 128.644C18.3617 129.042 18.5828 129.666 18.9763 129.569C20.1373 129.281 21.8201 128.83 22.2311 128.72C22.6993 128.595 23.188 128.311 22.7549 127.381C22.2569 126.312 21.6095 124.891 21.3034 124.138C21.0573 123.533 21.1288 123.116 21.8065 123.087C22.3955 123.223 23.2608 123.52 23.6222 123.517C24.075 123.513 25.0295 122.596 24.536 120.922C24.2055 119.8 22.78 118.759 21.9545 119.075C21.5925 119.172 21.0584 120.039 20.7595 120.429C20.4607 120.819 20.1632 120.232 20.0518 119.89C19.8015 119.04 19.7133 117.63 19.5657 116.377C19.4458 115.358 18.7108 115.231 18.3782 115.32L15.0418 116.214C14.4229 116.38 14.7732 116.807 15.0413 117.072C15.2739 117.264 16.1191 117.825 16.1803 118.788C16.2412 119.747 13.4446 120.861 12.2373 119.845C11.8197 119.493 12.1155 118.679 12.2724 117.814C12.3979 117.122 11.9141 117.064 11.6565 117.121L8.17344 118.054C7.16569 118.324 7.70099 118.815 8.10864 119.447Z" fill="#FF2D55" fill-opacity="0.301961"/>
<path d="M71.7187 97.3976C72.0889 97.3466 73.0527 97.285 73.5007 97.3594C73.9487 97.4339 73.8687 97.4082 74.2187 97.5156C74.5686 97.623 74.4517 97.9809 74.1882 98.2552C73.9246 98.5294 73.7806 98.5181 73.6639 99.1796C73.6065 99.5055 74.0076 100.194 74.8461 100.321C75.9839 100.492 76.7569 99.9879 76.8299 99.4869C76.9028 98.9859 76.0826 98.3636 76.3001 98.0893C76.5176 97.8149 77.7288 98.0933 77.7288 98.0933C77.7288 98.0933 78.1335 98.1954 79.1148 98.5142C80.0961 98.833 80.0734 98.3516 80.1426 97.9593L80.2704 97.2344L80.4498 96.2169C80.5929 95.4056 80.3698 95.6246 79.2439 95.8642C78.1181 96.1039 78.1642 94.9272 78.2458 94.4642C78.4909 93.0743 79.2383 93.1643 79.3967 93.211C79.6816 93.295 79.8862 93.442 80.1982 93.7212C80.4048 93.906 80.8446 93.9485 80.8966 93.6832C81.0499 92.9008 81.2516 91.7569 81.3008 91.4776C81.357 91.1594 81.3232 90.7841 80.6393 90.7838C79.8529 90.7834 78.8119 90.7742 78.271 90.7472C77.8361 90.7254 77.6039 90.5645 77.7774 90.147C78.0255 89.8294 78.4489 89.3903 78.5489 89.1711C78.6742 88.8964 78.3892 88.0614 77.2382 87.8877C76.4671 87.7713 75.437 88.3395 75.3949 88.9271C75.3515 89.1731 75.7249 89.7402 75.8766 90.0307C76.0283 90.3212 75.5897 90.3356 75.3515 90.3064C74.7676 90.2183 73.8906 89.8743 73.0918 89.6103C72.4427 89.3958 72.1585 89.8039 72.1186 90.03L71.7188 92.2977C71.6446 92.7184 72.0014 92.6272 72.2371 92.5398C72.4188 92.4535 72.9958 92.1008 73.595 92.3352C74.1918 92.5687 74.0767 94.5721 73.1225 95.0152C72.7924 95.1685 72.3835 94.7603 71.9053 94.4218C71.5226 94.1511 71.351 94.4269 71.3131 94.5987L70.8956 96.9662C70.7748 97.6511 71.2225 97.4661 71.7187 97.3976Z" fill="#5856D6" fill-opacity="0.301961"/>
<path d="M107.249 213.478C107.547 213.003 108.406 211.836 108.923 211.393C109.441 210.95 109.334 211.017 109.795 210.719C110.256 210.42 110.554 210.9 110.615 211.467C110.676 212.034 110.524 212.189 111.172 212.96C111.491 213.341 112.669 213.544 113.623 212.702C114.918 211.56 115.083 210.186 114.578 209.619C114.072 209.052 112.566 209.394 112.461 208.88C112.355 208.366 113.843 207.242 113.843 207.242C113.843 207.242 114.351 206.876 115.663 206.055C116.975 205.235 116.401 204.797 116.016 204.339L115.307 203.494L114.311 202.307C113.516 201.36 113.553 201.827 112.743 203.352C111.932 204.877 110.625 203.689 110.171 203.149C108.811 201.527 109.635 200.755 109.841 200.618C110.212 200.372 110.578 200.279 111.2 200.189C111.612 200.13 112.085 199.666 111.83 199.35C111.079 198.42 109.959 197.085 109.685 196.759C109.374 196.388 108.91 196.065 108.25 196.85C107.492 197.753 106.477 198.941 105.925 199.536C105.48 200.015 105.072 200.127 104.759 199.525C104.633 198.933 104.537 198.024 104.382 197.697C104.187 197.288 102.953 196.811 101.643 197.966C100.766 198.74 100.426 200.471 101.06 201.086C101.301 201.373 102.313 201.491 102.793 201.597C103.273 201.703 102.866 202.22 102.603 202.466C101.939 203.052 100.698 203.728 99.6246 204.391C98.7523 204.93 98.9472 205.65 99.1686 205.914L101.389 208.56C101.801 209.051 102.04 208.553 102.167 208.198C102.243 207.906 102.394 206.903 103.241 206.44C104.085 205.98 106.276 208.044 105.865 209.567C105.723 210.094 104.859 210.171 104.009 210.394C103.329 210.573 103.481 211.036 103.642 211.245L105.959 214.007C106.63 214.807 106.849 214.114 107.249 213.478Z" fill="#64D21E" fill-opacity="0.301961"/>
<path d="M66.4359 277.908C66.6978 278.403 67.2791 279.73 67.404 280.4C67.5289 281.07 67.5241 280.944 67.5522 281.492C67.5803 282.04 67.0159 282.059 66.4941 281.828C65.9723 281.598 65.9143 281.389 64.9221 281.564C64.4333 281.65 63.6684 282.569 63.9201 283.816C64.2618 285.508 65.3696 286.338 66.1132 286.184C66.8569 286.03 67.3131 284.554 67.8114 284.72C68.3098 284.886 68.5387 286.736 68.5387 286.736C68.5387 286.736 68.6025 287.359 68.6565 288.906C68.7106 290.452 69.3774 290.173 69.9659 290.07L71.0532 289.878L72.5794 289.609C73.7964 289.394 73.3734 289.192 72.458 287.728C71.5425 286.264 73.2248 285.725 73.9193 285.603C76.0042 285.235 76.2607 286.335 76.2761 286.582C76.3039 287.027 76.2018 287.391 75.9683 287.974C75.8136 288.36 75.9795 289.002 76.38 288.939C77.5616 288.753 79.2773 288.451 79.6963 288.377C80.1737 288.293 80.6853 288.053 80.3349 287.089C79.932 285.98 79.4109 284.508 79.1715 283.732C78.9791 283.107 79.0867 282.698 79.7643 282.728C80.3392 282.915 81.1754 283.286 81.5357 283.315C81.9871 283.35 83.0178 282.52 82.6722 280.809C82.4407 279.662 81.1114 278.502 80.2615 278.744C79.8924 278.809 79.2847 279.626 78.953 279.989C78.6213 280.352 78.3761 279.741 78.295 279.39C78.1196 278.522 78.1547 277.109 78.1169 275.848C78.0862 274.823 77.3652 274.632 77.026 274.692L73.6244 275.291C72.9934 275.403 73.3051 275.859 73.5491 276.146C73.7641 276.358 74.5572 276.991 74.5342 277.955C74.5113 278.916 71.6283 279.782 70.5142 278.664C70.1288 278.278 70.4944 277.492 70.7261 276.644C70.9115 275.966 70.4346 275.865 70.173 275.9L66.6218 276.526C65.5943 276.707 66.0848 277.243 66.4359 277.908Z" fill="#5AC8FA" fill-opacity="0.301961"/>
<path d="M103.636 10.2537C103.016 11.8581 101.113 15.8759 99.8135 17.5133C98.514 19.1508 98.7961 18.8861 97.5826 20.0552C96.3691 21.2243 95.1893 19.9551 94.6732 18.282C94.1572 16.6089 94.5241 16.0543 92.1212 14.1085C90.9375 13.15 87.2698 13.2282 84.8891 16.3212C81.6583 20.5189 81.9648 24.7569 83.819 26.1687C85.6733 27.5806 90.0087 25.667 90.6281 27.1549C91.2475 28.6427 87.4234 32.8979 87.4234 32.8979C87.4234 32.8979 86.1094 34.2994 82.636 37.5386C79.1626 40.7778 81.1511 41.7604 82.5763 42.9146L85.2094 45.0468L88.9053 48.0397C91.8524 50.4262 91.4688 49.0397 93.0164 43.9721C94.5641 38.9045 99.1986 41.7161 100.88 43.078C105.929 47.1664 103.899 49.9745 103.357 50.5079C102.383 51.4676 101.335 51.9636 99.5147 52.5964C98.3094 53.0155 97.1572 54.6915 98.109 55.4927C100.917 57.8562 105.072 61.2208 106.086 62.0424C107.242 62.9785 108.829 63.6801 110.356 60.9274C112.113 57.7622 114.473 53.5918 115.789 51.4745C116.847 49.7723 118.013 49.1962 119.307 50.8267C120.031 52.5343 120.854 55.2188 121.514 56.1106C122.34 57.2279 126.338 57.9439 129.606 53.6977C131.795 50.8532 131.807 45.4381 129.535 43.9571C128.641 43.2334 125.525 43.4713 124.017 43.4336C122.509 43.3958 123.429 41.5982 124.078 40.7042C125.736 38.5501 129.078 35.7873 131.924 33.1603C134.236 31.0256 133.227 28.9707 132.406 28.3056L124.168 21.6351C122.64 20.3976 122.211 22.0379 122.037 23.1816C121.979 24.106 122.111 27.2161 119.83 29.1053C117.559 30.9867 109.75 26.0525 110.095 21.222C110.215 19.5511 112.771 18.8159 115.201 17.6457C117.145 16.7095 116.417 15.403 115.81 14.8668L107.21 7.90288C104.722 5.88804 104.468 8.10309 103.636 10.2537Z" fill="#9C27B0" fill-opacity="0.3"/>
</svg>
